<?xml version="1.0" standalone="no"?>
<!DOCTYPE svg PUBLIC "-//W3C//DTD SVG 1.1//EN" "http://www.w3.org/Graphics/SVG/1.1/DTD/svg11.dtd" >
<svg xmlns="http://www.w3.org/2000/svg" xmlns:xlink="http://www.w3.org/1999/xlink" version="1.1">
<metadata>
Created by FontForge 20170924 at Mon Nov  2 18:54:26 1998
 By www-data
URW Software, Copyright 1998 by URW
</metadata>
<defs>
<font id="Quartz-Regular" horiz-adv-x="1010" >
  <font-face 
    font-family="Quartz"
    font-weight="400"
    font-stretch="normal"
    units-per-em="2048"
    panose-1="4 1 6 9 2 1 2 1 1 1"
    ascent="1592"
    descent="-456"
    x-height="1365"
    cap-height="1379"
    bbox="-300 -512 1366 1830"
    underline-thickness="126"
    underline-position="-264"
    unicode-range="U+0020-F002"
  />
<missing-glyph 
d="M101 0v1365h808v-1365h-808zM808 101v1163h-606v-1163h606z" />
    <glyph glyph-name=".notdef" 
d="M101 0v1365h808v-1365h-808zM808 101v1163h-606v-1163h606z" />
    <glyph glyph-name="glyph1" horiz-adv-x="0" 
 />
    <glyph glyph-name="glyph2" 
 />
    <glyph glyph-name="space" unicode=" " 
 />
    <glyph glyph-name="exclam" unicode="!" 
d="M611 1419v-955l-157 136v664zM611 313v-334l-157 44v235z" />
    <glyph glyph-name="quotedbl" unicode="&#x22;" 
d="M532 1365l-260 -633l-109 137l190 444zM847 1365l-260 -633l-109 137l189 444z" />
    <glyph glyph-name="numbersign" unicode="#" 
d="M489 1042h120l69 -79l-89 -78h-119l-69 78zM420 481h120l69 -78l-89 -79h-119l-69 79zM727 508l-88 -79l-69 79l43 349l88 79l69 -79zM639 1069l38 310l138 -157l-19 -153l-88 -79zM701 296l-38 -310l-137 157l18 153l88 79zM282 857l88 79l69 -79l-43 -349l-88 -79
l-69 79zM370 296l-38 -310l-138 157l19 153l88 79zM308 1069l38 310l138 -157l-19 -153l-88 -79zM820 1042h120l69 -79l-89 -78h-119l-69 78zM732 324l-69 79l88 78h120l69 -78l-89 -79h-119zM189 324h-119l-69 79l88 78h120l68 -78zM277 1042l69 -79l-88 -78h-119l-69 78
l88 79h119z" />
    <glyph glyph-name="dollar" unicode="$" 
d="M440 1406v109l79 79l78 -79v-109h-157zM597 -41v-112l-78 -79l-79 79v112h157zM123 1181l79 79l78 -79v-393l-145 -85l-12 7v471zM860 1365l-157 -157h-396l-78 79l78 78h553zM703 0h-553l157 157h396l79 -78zM888 184l-79 -78l-78 78v393l145 85l12 -7v-471zM171 683
l136 78h396l137 -78l-137 -79h-396z" />
    <glyph glyph-name="percent" unicode="%" 
d="M400 1360l-116 -106h-122l-117 106h355zM400 862h-355l117 106h122zM18 883v455l106 -117v-221zM422 1340v-457l-106 117v221zM593 710l-46 149l285 448l106 63v-132zM418 655h141l-380 -597l-106 -63v132zM931 504l-117 -106h-121l-117 106h355zM931 5h-355l117 106h121
zM554 27v455l106 -117v-221zM958 485v-458l-106 117v221z" />
    <glyph glyph-name="ampersand" unicode="&#x26;" 
d="M976 763l79 -79l-79 -78h-119l-79 78l79 79h119zM567 763h78l79 -79l-79 -78h-78l-120 78zM645 1365l-157 -157h-239l-64 64l93 93h367zM625 0h-376l-78 79l78 78h396l68 -68zM65 696v456l93 93l64 -64v-394zM65 669l157 -91v-394l-78 -78l-79 78v485zM830 578v-373
l-89 -89l-68 68v394l78 79zM830 949v-159l-79 -79l-78 79v159l78 78z" />
    <glyph glyph-name="quotesingle" unicode="'" 
d="M689 1365l-260 -633l-109 137l190 444z" />
    <glyph glyph-name="parenleft" unicode="(" 
d="M788 1365l-157 -157h-116l-78 79l78 78h273zM788 0h-273l-78 79l78 78h116zM331 696v485l79 79l78 -79v-394zM331 669l157 -91v-394l-78 -78l-79 78v485z" />
    <glyph glyph-name="parenright" unicode=")" 
d="M222 0l157 157h116l79 -78l-79 -79h-273zM222 1365h273l79 -78l-79 -79h-116zM679 669v-485l-79 -78l-78 78v394zM679 696l-157 91v394l78 79l79 -79v-485z" />
    <glyph glyph-name="asterisk" unicode="*" 
d="M448 1322l56 57l57 -57v-219l-57 -78l-56 78v219zM186 1034l-36 72l71 36l209 -68l56 -78l-91 -29zM359 691l-79 -12l-12 78l129 178l91 29v-96zM741 757l-13 -79l-79 13l-128 177v96l91 -29zM788 1142l72 -37l-37 -71l-208 -67l-91 29l56 78z" />
    <glyph glyph-name="plus" unicode="+" 
d="M516 1193l78 -79v-326l-78 -78l-79 78v326zM516 655l78 -78v-326l-78 -78l-79 78v326zM74 683l79 78h257l78 -78l-78 -79h-257zM543 683l78 78h258l78 -78l-78 -79h-258z" />
    <glyph glyph-name="comma" unicode="," 
d="M464 -223l-126 129l154 384h180z" />
    <glyph glyph-name="hyphen" unicode="-" 
d="M192 686l145 75h332l150 -75l-150 -82h-332z" />
    <glyph glyph-name="period" unicode="." 
d="M584 327v-327l-157 35v236z" />
    <glyph glyph-name="slash" unicode="/" 
d="M531 541l-479 -754l-103 -38v130l416 662h166zM540 554l-74 145l467 731l118 55l9 -110z" />
    <glyph glyph-name="zero" unicode="0" 
d="M123 696v642l157 -157v-393zM123 27v642l157 -92v-393zM860 1365l-157 -157h-396l-157 157h710zM860 0h-710l157 157h396zM888 669v-642l-157 157v393zM888 1338v-642l-157 92v393z" />
    <glyph glyph-name="one" unicode="1" 
d="M645 1365l-157 -157h-102l-157 157h416zM673 669v-683l-157 157v435zM673 1338v-642l-157 91v394z" />
    <glyph glyph-name="two" unicode="2" 
d="M123 27v628l12 7l145 -85v-393zM860 1365l-157 -157h-396l-157 157h710zM860 0h-710l157 157h396zM888 1338v-628l-12 -7l-145 85v393zM171 683l136 78h396l137 -78l-137 -79h-396z" />
    <glyph glyph-name="three" unicode="3" 
d="M819 1365l-157 -157h-396l-157 157h710zM819 0h-710l157 157h396zM846 669v-642l-157 157v393zM846 1338v-642l-157 92v393zM129 683l137 78h396l136 -78l-136 -79h-396z" />
    <glyph glyph-name="four" unicode="4" 
d="M96 1379l157 -157v-434l-145 -85l-12 7v669zM861 669v-683l-157 157v434zM861 1379v-683l-157 92v434zM144 683l136 78h396l137 -78l-137 -79h-396z" />
    <glyph glyph-name="five" unicode="5" 
d="M123 1338l157 -157v-393l-145 -85l-12 7v628zM860 1365l-157 -157h-396l-157 157h710zM860 0h-710l157 157h396zM888 27l-157 157v393l145 85l12 -7v-628zM171 683l136 78h396l137 -78l-137 -79h-396z" />
    <glyph glyph-name="six" unicode="6" 
d="M150 696v642l157 -157v-393zM150 27v642l157 -92v-393zM887 1365l-157 -157h-396l-157 157h710zM887 0h-710l157 157h396zM915 27l-157 157v393l145 85l12 -7v-628zM198 683l136 78h396l137 -78l-137 -79h-396z" />
    <glyph glyph-name="seven" unicode="7" 
d="M792 1365l-157 -157h-396l-157 157h710zM819 669v-683l-157 157v435zM819 1338v-642l-157 91v394z" />
    <glyph glyph-name="eight" unicode="8" 
d="M123 696v642l157 -157v-393zM123 27v642l157 -92v-393zM860 1365l-157 -157h-396l-157 157h710zM860 0h-710l157 157h396zM888 669v-642l-157 157v393zM888 1338v-642l-157 92v393zM171 683l136 78h396l137 -78l-137 -79h-396z" />
    <glyph glyph-name="nine" unicode="9" 
d="M96 1338l157 -157v-393l-145 -85l-12 7v628zM833 1365l-157 -157h-396l-157 157h710zM833 0h-710l157 157h396zM861 669v-642l-157 157v393zM861 1338v-642l-157 92v393zM144 683l136 78h396l137 -78l-137 -79h-396z" />
    <glyph glyph-name="colon" unicode=":" 
d="M584 327v-327l-157 35v236zM584 824v-328l-157 36v235z" />
    <glyph glyph-name="semicolon" unicode=";" 
d="M627 824v-328l-157 36v235zM626 313l-168 -547l-128 116l119 387z" />
    <glyph glyph-name="less" unicode="&#x3c;" 
d="M948 1160v-137l-740 -334l740 -336v-136l-887 412v120z" />
    <glyph glyph-name="equal" unicode="=" 
d="M929 833l-79 -79h-689l-79 79l79 78h689zM929 539l-79 -78h-689l-79 78l79 79h689z" />
    <glyph glyph-name="greater" unicode="&#x3e;" 
d="M62 217v137l740 335l-740 335v136l887 -412v-120z" />
    <glyph glyph-name="question" unicode="?" 
d="M388 761h274l131 -78l-151 -79h-97zM819 1365l-157 -157h-396l-157 157h710zM846 1338v-641l-157 91v393zM545 560v-171l-157 157v171zM546 346v-346l-157 79v189z" />
    <glyph glyph-name="at" unicode="@" 
d="M674 993l106 113v-426l-106 113v200zM394 793l-53 -56l-53 56v200l53 57l53 -57v-200zM421 661l-57 53l57 53h226l113 -106h-339zM421 1126h339l-113 -106h-226l-57 53zM845 710v507l63 62l63 -62v-436zM823 1238h-631l-62 63l62 63h631l63 -63zM823 312l126 -126h-757
l-62 63l62 63h631zM45 712v505l63 62l63 -62v-432zM45 690l126 -73v-284l-63 -62l-63 62v357z" />
    <glyph glyph-name="A" unicode="A" 
d="M123 696v642l157 -157v-393zM123 -14v683l157 -92v-434zM860 1365l-157 -157h-396l-157 157h710zM888 669v-683l-157 157v434zM888 1338v-642l-157 92v393zM171 683l136 78h396l137 -78l-137 -79h-396z" />
    <glyph glyph-name="B" unicode="B" 
d="M123 696v642l157 -157v-393zM123 27v642l157 -92v-393zM150 1365h553l79 -78l-79 -79h-396zM307 157h396l79 -78l-79 -79h-553zM888 577v-393l-79 -78l-78 78v393l78 78zM888 1181v-392l-79 -79l-78 78v393l78 79zM171 683l136 78h396l79 -78l-79 -79h-396z" />
    <glyph glyph-name="C" unicode="C" 
d="M171 696v485l79 79l78 -79v-393zM171 184v485l157 -92v-393l-78 -78zM908 1365l-157 -157h-396l-78 79l78 78h553zM908 0h-553l-78 79l78 78h396z" />
    <glyph glyph-name="D" unicode="D" 
d="M123 696v642l157 -157v-393zM123 27v642l157 -92v-393zM703 1365l79 -78l-79 -79h-396l-157 157h553zM703 0h-553l157 157h396l79 -78zM888 669v-485l-79 -78l-78 78v393zM888 1181v-485l-157 92v393l78 79z" />
    <glyph glyph-name="E" unicode="E" 
d="M164 696v642l157 -157v-393zM164 27v642l157 -92v-393zM901 1365l-157 -157h-396l-157 157h710zM901 0h-710l157 157h396zM212 683l136 78h396l137 -78l-137 -79h-396z" />
    <glyph glyph-name="F" unicode="F" 
d="M164 696v642l157 -157v-393zM164 -14v683l157 -92v-434zM901 1365l-157 -157h-396l-157 157h710zM212 683l136 78h396l137 -78l-137 -79h-396z" />
    <glyph glyph-name="G" unicode="G" 
d="M123 696v485l79 79l78 -79v-393zM123 184v485l157 -92v-393l-78 -78zM703 1365l-157 -157h-239l-78 79l78 78h396zM703 0h-396l-78 79l78 78h396l79 -78zM888 184l-79 -78l-78 78v393l145 85l12 -7v-471zM498 683l137 78h68l137 -78l-137 -79h-68z" />
    <glyph glyph-name="H" unicode="H" 
d="M123 696v683l157 -157v-434zM123 -14v683l157 -92v-434zM888 669v-683l-157 157v434zM888 1379v-683l-157 92v434zM171 683l136 78h396l137 -78l-137 -79h-396z" />
    <glyph glyph-name="I" unicode="I" 
d="M584 669v-683l-157 157v434zM584 1379v-683l-157 92v434z" />
    <glyph glyph-name="J" unicode="J" 
d="M96 27v369l157 -92v-120zM833 0h-710l157 157h396zM861 669v-642l-157 157v393zM861 1379v-683l-157 92v434z" />
    <glyph glyph-name="K" unicode="K" 
d="M888 1365v-111l-455 -452h-111v111l455 452h111zM123 696v683l157 -157v-434zM123 -14v683l157 -92v-434zM731 143v434l145 85l12 -7v-669zM171 683l136 78h396l137 -78l-137 -79h-396z" />
    <glyph glyph-name="L" unicode="L" 
d="M915 27l-157 157v120l157 92v-369zM177 0l157 157h396l157 -157h-710zM150 669l157 -92v-393l-157 -157v642zM150 1379l157 -157v-434l-157 -92v683z" />
    <glyph glyph-name="M" unicode="M" 
d="M918 696l-157 92v393l79 79l78 -79v-485zM918 -14l-157 157v434l157 92v-683zM519 1365h215l78 -78l-78 -79h-116zM584 143l-78 -157l-79 157v415l79 111l78 -125v-401zM427 821v360l79 130l78 -130v-360l-78 -125zM92 696v485l79 79l78 -79v-393zM92 -14v683l157 -92
v-434zM491 1365l-99 -157h-116l-78 79l78 78h215z" />
    <glyph glyph-name="N" unicode="N" 
d="M123 696v485l79 79l78 -79v-393zM123 -14v683l157 -92v-434zM703 1365l79 -78l-79 -79h-396l-78 79l78 78h396zM888 669v-683l-157 157v434zM888 1181v-485l-157 92v393l78 79z" />
    <glyph glyph-name="O" unicode="O" 
d="M123 696v485l79 79l78 -79v-393zM123 184v485l157 -92v-393l-78 -78zM703 1365l79 -78l-79 -79h-396l-78 79l78 78h396zM703 0h-396l-78 79l78 78h396l79 -78zM888 669v-485l-79 -78l-78 78v393zM888 1181v-485l-157 92v393l78 79z" />
    <glyph glyph-name="P" unicode="P" 
d="M123 696v642l157 -157v-393zM123 -14v683l157 -92v-434zM703 1365l79 -78l-79 -79h-396l-157 157h553zM888 1181v-471l-12 -7l-145 85v393l78 79zM171 683l136 78h396l137 -78l-137 -79h-396z" />
    <glyph glyph-name="Q" unicode="Q" 
d="M888 -226l-385 383h201l184 -186v-197zM123 696v485l79 79l78 -79v-393zM123 184v485l157 -92v-393l-78 -78zM703 1365l79 -78l-79 -79h-396l-78 79l78 78h396zM601 0h-294l-78 79l78 78h137zM888 669v-485l-79 -78l-78 78v393zM888 1181v-485l-157 92v393l78 79z" />
    <glyph glyph-name="R" unicode="R" 
d="M717 571l243 -585l-262 172l-162 413h181zM91 696v642l157 -157v-393zM91 -14v683l157 -92v-434zM671 1365l79 -78l-79 -79h-396l-157 157h553zM856 1181v-471l-12 -7l-145 85v393l78 79zM139 683l136 78h396l137 -78l-137 -79h-396z" />
    <glyph glyph-name="S" unicode="S" 
d="M123 1181l79 79l78 -79v-393l-145 -85l-12 7v471zM860 1365l-157 -157h-396l-78 79l78 78h553zM703 0h-553l157 157h396l79 -78zM888 184l-79 -78l-78 78v393l145 85l12 -7v-471zM171 683l136 78h396l137 -78l-137 -79h-396z" />
    <glyph glyph-name="T" unicode="T" 
d="M518 1365h489l-157 -157h-233zM583 143l-79 -157l-78 157v415l78 111l79 -125v-401zM426 821v360l78 130l79 -130v-360l-79 -125zM491 1365l-99 -157h-232l-157 157h488z" />
    <glyph glyph-name="U" unicode="U" 
d="M888 669v-485l-79 -78l-78 78v393zM888 1379v-683l-157 92v434zM307 0l-78 79l78 78h396l79 -78l-79 -79h-396zM123 696v683l157 -157v-434zM123 184v485l157 -92v-393l-78 -78z" />
    <glyph glyph-name="V" unicode="V" 
d="M311 626l186 -447l-112 -153l-262 643zM620 0h-207l100 142zM888 669l-248 -633l-109 143l177 439zM123 696v683l157 -157v-434zM888 1379v-683l-157 92v434z" />
    <glyph glyph-name="W" unicode="W" 
d="M92 669l157 -92v-393l-78 -78l-79 78v485zM92 1379l157 -157v-434l-157 -92v683zM491 0h-215l-78 79l78 78h116zM427 1222l79 157l78 -157v-415l-78 -111l-79 125v401zM584 544v-360l-78 -129l-79 129v360l79 125zM918 669v-485l-78 -78l-79 78v393zM918 1379v-683
l-157 92v434zM519 0l99 157h116l78 -78l-78 -79h-215z" />
    <glyph glyph-name="X" unicode="X" 
d="M111 1365h106l267 -467v-199h-61l-312 549v117zM792 1365h107v-117l-313 -549h-61v197zM217 0h-106v137l312 521h61v-179zM899 0h-99l-275 477v181h61l313 -521v-137z" />
    <glyph glyph-name="Y" unicode="Y" 
d="M584 563v-420l-78 -157l-79 157v420h157zM123 1379l157 -157v-434l-145 -85l-12 7v669zM888 1379v-669l-12 -7l-145 85v434zM171 683l136 78h396l137 -78l-137 -79h-396z" />
    <glyph glyph-name="Z" unicode="Z" 
d="M593 679l-76 169l214 333l157 157v-196zM391 655h188l-299 -471l-157 -157v214zM860 1365l-157 -157h-396l-157 157h710zM860 0h-710l157 157h396z" />
    <glyph glyph-name="bracketleft" unicode="[" 
d="M792 1365l-157 -157h-123l-157 157h437zM792 0h-437l157 157h123zM328 696v642l157 -157v-394zM328 669l157 -91v-394l-157 -157v642z" />
    <glyph glyph-name="backslash" unicode="\" 
d="M478 582h166l416 -662v-130l-103 38zM470 595l-521 821l9 110l118 -55l467 -731z" />
    <glyph glyph-name="bracketright" unicode="]" 
d="M218 0l157 157h123l157 -157h-437zM218 1365h437l-157 -157h-123zM682 669v-642l-157 157v394zM682 696l-157 91v394l157 157v-642z" />
    <glyph glyph-name="asciicircum" unicode="^" 
d="M198 754h-149l366 615h180l366 -615h-151l-307 506z" />
    <glyph glyph-name="underscore" unicode="_" 
d="M-7 -138h1024v-126h-1024v126z" />
    <glyph glyph-name="grave" unicode="`" 
d="M214 1720h191l246 -245h-191z" />
    <glyph glyph-name="a" unicode="a" 
d="M123 696v642l157 -157v-393zM123 -14v683l157 -92v-434zM860 1365l-157 -157h-396l-157 157h710zM888 669v-683l-157 157v434zM888 1338v-642l-157 92v393zM171 683l136 78h396l137 -78l-137 -79h-396z" />
    <glyph glyph-name="b" unicode="b" 
d="M123 696v642l157 -157v-393zM123 27v642l157 -92v-393zM150 1365h553l79 -78l-79 -79h-396zM307 157h396l79 -78l-79 -79h-553zM888 577v-393l-79 -78l-78 78v393l78 78zM888 1181v-392l-79 -79l-78 78v393l78 79zM171 683l136 78h396l79 -78l-79 -79h-396z" />
    <glyph glyph-name="c" unicode="c" 
d="M171 696v485l79 79l78 -79v-393zM171 184v485l157 -92v-393l-78 -78zM908 1365l-157 -157h-396l-78 79l78 78h553zM908 0h-553l-78 79l78 78h396z" />
    <glyph glyph-name="d" unicode="d" 
d="M123 696v642l157 -157v-393zM123 27v642l157 -92v-393zM703 1365l79 -78l-79 -79h-396l-157 157h553zM703 0h-553l157 157h396l79 -78zM888 669v-485l-79 -78l-78 78v393zM888 1181v-485l-157 92v393l78 79z" />
    <glyph glyph-name="e" unicode="e" 
d="M164 696v642l157 -157v-393zM164 27v642l157 -92v-393zM901 1365l-157 -157h-396l-157 157h710zM901 0h-710l157 157h396zM212 683l136 78h396l137 -78l-137 -79h-396z" />
    <glyph glyph-name="f" unicode="f" 
d="M164 696v642l157 -157v-393zM164 -14v683l157 -92v-434zM901 1365l-157 -157h-396l-157 157h710zM212 683l136 78h396l137 -78l-137 -79h-396z" />
    <glyph glyph-name="g" unicode="g" 
d="M123 696v485l79 79l78 -79v-393zM123 184v485l157 -92v-393l-78 -78zM703 1365l-157 -157h-239l-78 79l78 78h396zM703 0h-396l-78 79l78 78h396l79 -78zM888 184l-79 -78l-78 78v393l145 85l12 -7v-471zM498 683l137 78h68l137 -78l-137 -79h-68z" />
    <glyph glyph-name="h" unicode="h" 
d="M123 696v683l157 -157v-434zM123 -14v683l157 -92v-434zM888 669v-683l-157 157v434zM888 1379v-683l-157 92v434zM171 683l136 78h396l137 -78l-137 -79h-396z" />
    <glyph glyph-name="i" unicode="i" 
d="M584 669v-683l-157 157v434zM584 1379v-683l-157 92v434z" />
    <glyph glyph-name="j" unicode="j" 
d="M96 27v369l157 -92v-120zM833 0h-710l157 157h396zM861 669v-642l-157 157v393zM861 1379v-683l-157 92v434z" />
    <glyph glyph-name="k" unicode="k" 
d="M888 1365v-111l-455 -452h-111v111l455 452h111zM123 696v683l157 -157v-434zM123 -14v683l157 -92v-434zM731 143v434l145 85l12 -7v-669zM171 683l136 78h396l137 -78l-137 -79h-396z" />
    <glyph glyph-name="l" unicode="l" 
d="M915 27l-157 157v120l157 92v-369zM177 0l157 157h396l157 -157h-710zM150 669l157 -92v-393l-157 -157v642zM150 1379l157 -157v-434l-157 -92v683z" />
    <glyph glyph-name="m" unicode="m" 
d="M918 696l-157 92v393l79 79l78 -79v-485zM918 -14l-157 157v434l157 92v-683zM519 1365h215l78 -78l-78 -79h-116zM584 143l-78 -157l-79 157v415l79 111l78 -125v-401zM427 821v360l79 130l78 -130v-360l-78 -125zM92 696v485l79 79l78 -79v-393zM92 -14v683l157 -92
v-434zM491 1365l-99 -157h-116l-78 79l78 78h215z" />
    <glyph glyph-name="n" unicode="n" 
d="M123 696v485l79 79l78 -79v-393zM123 -14v683l157 -92v-434zM703 1365l79 -78l-79 -79h-396l-78 79l78 78h396zM888 669v-683l-157 157v434zM888 1181v-485l-157 92v393l78 79z" />
    <glyph glyph-name="o" unicode="o" 
d="M123 696v485l79 79l78 -79v-393zM123 184v485l157 -92v-393l-78 -78zM703 1365l79 -78l-79 -79h-396l-78 79l78 78h396zM703 0h-396l-78 79l78 78h396l79 -78zM888 669v-485l-79 -78l-78 78v393zM888 1181v-485l-157 92v393l78 79z" />
    <glyph glyph-name="p" unicode="p" 
d="M123 696v642l157 -157v-393zM123 -14v683l157 -92v-434zM703 1365l79 -78l-79 -79h-396l-157 157h553zM888 1181v-471l-12 -7l-145 85v393l78 79zM171 683l136 78h396l137 -78l-137 -79h-396z" />
    <glyph glyph-name="q" unicode="q" 
d="M888 -226l-385 383h201l184 -186v-197zM123 696v485l79 79l78 -79v-393zM123 184v485l157 -92v-393l-78 -78zM703 1365l79 -78l-79 -79h-396l-78 79l78 78h396zM601 0h-294l-78 79l78 78h137zM888 669v-485l-79 -78l-78 78v393zM888 1181v-485l-157 92v393l78 79z" />
    <glyph glyph-name="r" unicode="r" 
d="M717 571l243 -585l-262 172l-162 413h181zM91 696v642l157 -157v-393zM91 -14v683l157 -92v-434zM671 1365l79 -78l-79 -79h-396l-157 157h553zM856 1181v-471l-12 -7l-145 85v393l78 79zM139 683l136 78h396l137 -78l-137 -79h-396z" />
    <glyph glyph-name="s" unicode="s" 
d="M123 1181l79 79l78 -79v-393l-145 -85l-12 7v471zM860 1365l-157 -157h-396l-78 79l78 78h553zM703 0h-553l157 157h396l79 -78zM888 184l-79 -78l-78 78v393l145 85l12 -7v-471zM171 683l136 78h396l137 -78l-137 -79h-396z" />
    <glyph glyph-name="t" unicode="t" 
d="M518 1365h489l-157 -157h-233zM583 143l-79 -157l-78 157v415l78 111l79 -125v-401zM426 821v360l78 130l79 -130v-360l-79 -125zM491 1365l-99 -157h-232l-157 157h488z" />
    <glyph glyph-name="u" unicode="u" 
d="M888 669v-485l-79 -78l-78 78v393zM888 1379v-683l-157 92v434zM307 0l-78 79l78 78h396l79 -78l-79 -79h-396zM123 696v683l157 -157v-434zM123 184v485l157 -92v-393l-78 -78z" />
    <glyph glyph-name="v" unicode="v" 
d="M311 626l186 -447l-112 -153l-262 643zM620 0h-207l100 142zM888 669l-248 -633l-109 143l177 439zM123 696v683l157 -157v-434zM888 1379v-683l-157 92v434z" />
    <glyph glyph-name="w" unicode="w" 
d="M92 669l157 -92v-393l-78 -78l-79 78v485zM92 1379l157 -157v-434l-157 -92v683zM491 0h-215l-78 79l78 78h116zM427 1222l79 157l78 -157v-415l-78 -111l-79 125v401zM584 544v-360l-78 -129l-79 129v360l79 125zM918 669v-485l-78 -78l-79 78v393zM918 1379v-683
l-157 92v434zM519 0l99 157h116l78 -78l-78 -79h-215z" />
    <glyph glyph-name="x" unicode="x" 
d="M111 1365h106l267 -467v-199h-61l-312 549v117zM792 1365h107v-117l-313 -549h-61v197zM217 0h-106v137l312 521h61v-179zM899 0h-99l-275 477v181h61l313 -521v-137z" />
    <glyph glyph-name="y" unicode="y" 
d="M584 563v-420l-78 -157l-79 157v420h157zM123 1379l157 -157v-434l-145 -85l-12 7v669zM888 1379v-669l-12 -7l-145 85v434zM171 683l136 78h396l137 -78l-137 -79h-396z" />
    <glyph glyph-name="z" unicode="z" 
d="M593 679l-76 169l214 333l157 157v-196zM391 655h188l-299 -471l-157 -157v214zM860 1365l-157 -157h-396l-157 157h710zM860 0h-710l157 157h396z" />
    <glyph glyph-name="braceleft" unicode="{" 
d="M800 1365l-157 -157h-89l-78 79l78 78h246zM800 0h-246l-78 79l78 78h89zM527 1181v-393l-79 -78l-78 78v393l78 79zM527 577v-393l-79 -78l-78 78v393l78 78zM237 683l79 78h27l78 -78l-78 -79h-27z" />
    <glyph glyph-name="bar" unicode="|" 
d="M437 1365h137v-1706h-137v1706z" />
    <glyph glyph-name="braceright" unicode="}" 
d="M210 0l157 157h89l78 -78l-78 -79h-246zM210 1365h246l78 -78l-78 -79h-89zM483 184v393l78 78l79 -78v-393l-79 -78zM483 788v393l78 79l79 -79v-393l-79 -78zM773 683l-78 -79h-28l-78 79l78 78h28z" />
    <glyph glyph-name="asciitilde" unicode="~" 
d="M96 1197l-82 53q42 83 75 126q81 105 202 105q78 0 232 -73q103 -50 137 -59q35 -9 63 -9q73 0 122 51q32 31 68 94l84 -50q-53 -105 -108 -154q-80 -70 -181 -70q-52 0 -137 31q-16 6 -149 68q-87 40 -141 40q-67 0 -119 -56q-32 -34 -66 -97z" />
    <glyph glyph-name="Adieresis" unicode="&#xc4;" 
d="M123 696v642l157 -157v-393zM123 -14v683l157 -92v-434zM860 1365l-157 -157h-396l-157 157h710zM888 669v-683l-157 157v434zM888 1338v-642l-157 92v393zM171 683l136 78h396l137 -78l-137 -79h-396zM232 1666h157v-191h-157v191zM621 1666h157v-191h-157v191z" />
    <glyph glyph-name="Aring" unicode="&#xc5;" 
d="M123 696v642l157 -157v-393zM123 -14v683l157 -92v-434zM860 1365l-157 -157h-396l-157 157h710zM888 669v-683l-157 157v434zM888 1338v-642l-157 92v393zM171 683l136 78h396l137 -78l-137 -79h-396zM355 1830h301l-110 -106h-81zM683 1802v-300l-106 109v82zM656 1475
h-301l110 106h81zM328 1802l106 -109v-82l-106 -109v300z" />
    <glyph glyph-name="Ccedilla" unicode="&#xc7;" 
d="M171 696v485l79 79l78 -79v-393zM171 184v485l157 -92v-393l-78 -78zM908 1365l-157 -157h-396l-78 79l78 78h553zM908 0h-553l-78 79l78 78h396zM476 -41h199l-237 -415l-116 144z" />
    <glyph glyph-name="Eacute" unicode="&#xc9;" 
d="M164 696v642l157 -157v-393zM164 27v642l157 -92v-393zM901 1365l-157 -157h-396l-157 157h710zM901 0h-710l157 157h396zM212 683l136 78h396l137 -78l-137 -79h-396zM796 1720l-246 -245h-191l246 245h191z" />
    <glyph glyph-name="Ntilde" unicode="&#xd1;" 
d="M123 696v485l79 79l78 -79v-393zM123 -14v683l157 -92v-434zM703 1365l79 -78l-79 -79h-396l-78 79l78 78h396zM888 669v-683l-157 157v434zM888 1181v-485l-157 92v393l78 79zM159 1511l78 93l105 -46l-78 -92zM350 1735l396 -174l-85 -101l-397 175zM774 1592l-105 46
l78 93l105 -46z" />
    <glyph glyph-name="Odieresis" unicode="&#xd6;" 
d="M123 696v485l79 79l78 -79v-393zM123 184v485l157 -92v-393l-78 -78zM703 1365l79 -78l-79 -79h-396l-78 79l78 78h396zM703 0h-396l-78 79l78 78h396l79 -78zM888 669v-485l-79 -78l-78 78v393zM888 1181v-485l-157 92v393l78 79zM232 1666h157v-191h-157v191zM621 1666
h157v-191h-157v191z" />
    <glyph glyph-name="Udieresis" unicode="&#xdc;" 
d="M888 669v-485l-79 -78l-78 78v393zM888 1379v-683l-157 92v434zM307 0l-78 79l78 78h396l79 -78l-79 -79h-396zM123 696v683l157 -157v-434zM123 184v485l157 -92v-393l-78 -78zM232 1666h157v-191h-157v191zM621 1666h157v-191h-157v191z" />
    <glyph glyph-name="aacute" unicode="&#xe1;" 
d="M123 696v642l157 -157v-393zM123 -14v683l157 -92v-434zM860 1365l-157 -157h-396l-157 157h710zM888 669v-683l-157 157v434zM888 1338v-642l-157 92v393zM171 683l136 78h396l137 -78l-137 -79h-396zM796 1720l-246 -245h-191l246 245h191z" />
    <glyph glyph-name="agrave" unicode="&#xe0;" 
d="M123 696v642l157 -157v-393zM123 -14v683l157 -92v-434zM860 1365l-157 -157h-396l-157 157h710zM888 669v-683l-157 157v434zM888 1338v-642l-157 92v393zM171 683l136 78h396l137 -78l-137 -79h-396zM214 1720h191l246 -245h-191z" />
    <glyph glyph-name="acircumflex" unicode="&#xe2;" 
d="M123 696v642l157 -157v-393zM123 -14v683l157 -92v-434zM860 1365l-157 -157h-396l-157 157h710zM888 669v-683l-157 157v434zM888 1338v-642l-157 92v393zM171 683l136 78h396l137 -78l-137 -79h-396zM178 1475l305 263v-177l-87 -86h-218zM832 1475h-218l-87 86v177z
" />
    <glyph glyph-name="adieresis" unicode="&#xe4;" 
d="M123 696v642l157 -157v-393zM123 -14v683l157 -92v-434zM860 1365l-157 -157h-396l-157 157h710zM888 669v-683l-157 157v434zM888 1338v-642l-157 92v393zM171 683l136 78h396l137 -78l-137 -79h-396zM232 1666h157v-191h-157v191zM621 1666h157v-191h-157v191z" />
    <glyph glyph-name="atilde" unicode="&#xe3;" 
d="M123 696v642l157 -157v-393zM123 -14v683l157 -92v-434zM860 1365l-157 -157h-396l-157 157h710zM888 669v-683l-157 157v434zM888 1338v-642l-157 92v393zM171 683l136 78h396l137 -78l-137 -79h-396zM159 1511l78 93l105 -46l-78 -92zM350 1735l396 -174l-85 -101
l-397 175zM774 1592l-105 46l78 93l105 -46z" />
    <glyph glyph-name="aring" unicode="&#xe5;" 
d="M123 696v642l157 -157v-393zM123 -14v683l157 -92v-434zM860 1365l-157 -157h-396l-157 157h710zM888 669v-683l-157 157v434zM888 1338v-642l-157 92v393zM171 683l136 78h396l137 -78l-137 -79h-396zM355 1830h301l-110 -106h-81zM683 1802v-300l-106 109v82zM656 1475
h-301l110 106h81zM328 1802l106 -109v-82l-106 -109v300z" />
    <glyph glyph-name="ccedilla" unicode="&#xe7;" 
d="M171 696v485l79 79l78 -79v-393zM171 184v485l157 -92v-393l-78 -78zM908 1365l-157 -157h-396l-78 79l78 78h553zM908 0h-553l-78 79l78 78h396zM476 -41h199l-237 -415l-116 144z" />
    <glyph glyph-name="eacute" unicode="&#xe9;" 
d="M164 696v642l157 -157v-393zM164 27v642l157 -92v-393zM901 1365l-157 -157h-396l-157 157h710zM901 0h-710l157 157h396zM212 683l136 78h396l137 -78l-137 -79h-396zM796 1720l-246 -245h-191l246 245h191z" />
    <glyph glyph-name="egrave" unicode="&#xe8;" 
d="M164 696v642l157 -157v-393zM164 27v642l157 -92v-393zM901 1365l-157 -157h-396l-157 157h710zM901 0h-710l157 157h396zM212 683l136 78h396l137 -78l-137 -79h-396zM215 1720h191l246 -245h-191z" />
    <glyph glyph-name="ecircumflex" unicode="&#xea;" 
d="M164 696v642l157 -157v-393zM164 27v642l157 -92v-393zM901 1365l-157 -157h-396l-157 157h710zM901 0h-710l157 157h396zM212 683l136 78h396l137 -78l-137 -79h-396zM206 1475l305 263v-177l-87 -86h-218zM860 1475h-218l-87 86v177z" />
    <glyph glyph-name="edieresis" unicode="&#xeb;" 
d="M164 696v642l157 -157v-393zM164 27v642l157 -92v-393zM901 1365l-157 -157h-396l-157 157h710zM901 0h-710l157 157h396zM212 683l136 78h396l137 -78l-137 -79h-396zM260 1666h157v-191h-157v191zM649 1666h157v-191h-157v191z" />
    <glyph glyph-name="iacute" unicode="&#xed;" 
d="M584 669v-683l-157 157v434zM584 1379v-683l-157 92v434zM796 1720l-246 -245h-191l246 245h191z" />
    <glyph glyph-name="igrave" unicode="&#xec;" 
d="M583 669v-683l-157 157v434zM583 1379v-683l-157 92v434zM214 1720h191l246 -245h-191z" />
    <glyph glyph-name="icircumflex" unicode="&#xee;" 
d="M584 669v-683l-157 157v434zM584 1379v-683l-157 92v434zM178 1475l305 263v-177l-87 -86h-218zM832 1475h-218l-87 86v177z" />
    <glyph glyph-name="idieresis" unicode="&#xef;" 
d="M584 669v-683l-157 157v434zM584 1379v-683l-157 92v434zM315 1665h157v-190h-157v190zM539 1665h157v-190h-157v190z" />
    <glyph glyph-name="ntilde" unicode="&#xf1;" 
d="M123 696v485l79 79l78 -79v-393zM123 -14v683l157 -92v-434zM703 1365l79 -78l-79 -79h-396l-78 79l78 78h396zM888 669v-683l-157 157v434zM888 1181v-485l-157 92v393l78 79zM159 1511l78 93l105 -46l-78 -92zM350 1735l396 -174l-85 -101l-397 175zM774 1592l-105 46
l78 93l105 -46z" />
    <glyph glyph-name="oacute" unicode="&#xf3;" 
d="M123 696v485l79 79l78 -79v-393zM123 184v485l157 -92v-393l-78 -78zM703 1365l79 -78l-79 -79h-396l-78 79l78 78h396zM703 0h-396l-78 79l78 78h396l79 -78zM888 669v-485l-79 -78l-78 78v393zM888 1181v-485l-157 92v393l78 79zM824 1720l-246 -245h-191l246 245h191z
" />
    <glyph glyph-name="ograve" unicode="&#xf2;" 
d="M123 696v485l79 79l78 -79v-393zM123 184v485l157 -92v-393l-78 -78zM703 1365l79 -78l-79 -79h-396l-78 79l78 78h396zM703 0h-396l-78 79l78 78h396l79 -78zM888 669v-485l-79 -78l-78 78v393zM888 1181v-485l-157 92v393l78 79zM187 1720h191l246 -245h-191z" />
    <glyph glyph-name="ocircumflex" unicode="&#xf4;" 
d="M123 696v485l79 79l78 -79v-393zM123 184v485l157 -92v-393l-78 -78zM703 1365l79 -78l-79 -79h-396l-78 79l78 78h396zM703 0h-396l-78 79l78 78h396l79 -78zM888 669v-485l-79 -78l-78 78v393zM888 1181v-485l-157 92v393l78 79zM178 1475l305 263v-177l-87 -86h-218z
M832 1475h-218l-87 86v177z" />
    <glyph glyph-name="odieresis" unicode="&#xf6;" 
d="M123 696v485l79 79l78 -79v-393zM123 184v485l157 -92v-393l-78 -78zM703 1365l79 -78l-79 -79h-396l-78 79l78 78h396zM703 0h-396l-78 79l78 78h396l79 -78zM888 669v-485l-79 -78l-78 78v393zM888 1181v-485l-157 92v393l78 79zM232 1666h157v-191h-157v191zM621 1666
h157v-191h-157v191z" />
    <glyph glyph-name="otilde" unicode="&#xf5;" 
d="M123 696v485l79 79l78 -79v-393zM123 184v485l157 -92v-393l-78 -78zM703 1365l79 -78l-79 -79h-396l-78 79l78 78h396zM703 0h-396l-78 79l78 78h396l79 -78zM888 669v-485l-79 -78l-78 78v393zM888 1181v-485l-157 92v393l78 79zM159 1511l78 93l105 -46l-78 -92z
M350 1735l396 -174l-85 -101l-397 175zM774 1592l-105 46l78 93l105 -46z" />
    <glyph glyph-name="uacute" unicode="&#xfa;" 
d="M888 669v-485l-79 -78l-78 78v393zM888 1379v-683l-157 92v434zM307 0l-78 79l78 78h396l79 -78l-79 -79h-396zM123 696v683l157 -157v-434zM123 184v485l157 -92v-393l-78 -78zM796 1720l-246 -245h-191l246 245h191z" />
    <glyph glyph-name="ugrave" unicode="&#xf9;" 
d="M888 669v-485l-79 -78l-78 78v393zM888 1379v-683l-157 92v434zM307 0l-78 79l78 78h396l79 -78l-79 -79h-396zM123 696v683l157 -157v-434zM123 184v485l157 -92v-393l-78 -78zM214 1720h191l246 -245h-191z" />
    <glyph glyph-name="ucircumflex" unicode="&#xfb;" 
d="M888 669v-485l-79 -78l-78 78v393zM888 1379v-683l-157 92v434zM307 0l-78 79l78 78h396l79 -78l-79 -79h-396zM123 696v683l157 -157v-434zM123 184v485l157 -92v-393l-78 -78zM178 1475l305 263v-177l-87 -86h-218zM832 1475h-218l-87 86v177z" />
    <glyph glyph-name="udieresis" unicode="&#xfc;" 
d="M888 669v-485l-79 -78l-78 78v393zM888 1379v-683l-157 92v434zM307 0l-78 79l78 78h396l79 -78l-79 -79h-396zM123 696v683l157 -157v-434zM123 184v485l157 -92v-393l-78 -78zM232 1666h157v-191h-157v191zM621 1666h157v-191h-157v191z" />
    <glyph glyph-name="dagger" unicode="&#x2020;" 
d="M427 857l79 79l78 -79v-714l-78 -157l-79 157v714zM427 1069v153l79 157l78 -157v-153l-78 -79zM399 1042l79 -79l-79 -78h-218l-99 78l99 79h218zM611 1042h219l99 -79l-99 -78h-219l-78 78z" />
    <glyph glyph-name="degree" unicode="&#xb0;" 
d="M362 1365h286l55 -53l-55 -53h-286l-55 53zM778 1235v-286l-53 -55l-53 55v286l53 55zM648 819h-286l-55 53l55 53h286l55 -53zM232 949v286l53 55l53 -55v-286l-53 -55z" />
    <glyph glyph-name="cent" unicode="&#xa2;" 
d="M314 389l-78 -78l-79 78v587l79 79l78 -79v-587zM894 205h-553l-78 78l78 79h396zM894 1161l-157 -157h-396l-78 78l78 79h553zM460 1201v109l78 79l79 -79v-109h-157zM617 164v-113l-79 -78l-78 78v113h157z" />
    <glyph glyph-name="sterling" unicode="&#xa3;" 
d="M903 1365l-157 -157h-355l-157 157h669zM944 0h-710l157 157h396zM-2 683l79 78h83l108 -78l-108 -79h-83zM289 683l108 78h139l135 -78l-135 -79h-139zM207 775v563l157 -157v-394l-84 -59zM207 591l73 46l84 -59v-394l-157 -157v564z" />
    <glyph glyph-name="section" unicode="&#xa7;" 
d="M921 1365l-157 -157h-445l-79 79l79 78h602zM138 1185l79 78l78 -78v-234l-72 -72l-85 84v222zM331 771l-79 85l71 72h387l79 -79l-79 -78h-379zM147 743l78 89l79 -89v-364l-70 -70l-87 70v364zM341 199l-82 88l69 69h382l79 -79l-79 -78h-369zM733 379v369l78 78
l79 -78v-369l-79 -78zM890 175v-241l-79 -78l-78 78v241l78 79zM789 -168l-73 -78h-620l157 157h457z" />
    <glyph glyph-name="bullet" unicode="&#x2022;" 
d="M512 978q113 0 196 -83q84 -83 84 -201t-83 -201t-201 -83q-116 0 -199 82q-85 84 -85 202q0 121 84 202q86 82 204 82z" />
    <glyph glyph-name="paragraph" unicode="&#xb6;" 
d="M860 1365l-157 -157h-396l-78 79l78 78h553zM615 27l-157 157v393l79 130l78 -130v-550zM615 -14v-327l-157 157v78zM888 696l-157 92v393l157 157v-642zM888 27l-157 157v393l157 92v-642zM888 -14v-327l-157 157v78zM123 1181l79 79l78 -79v-393l-145 -85l-12 7v471z
M840 683l-137 -79h-61l-92 157h153zM307 761h215l-92 -157h-123l-136 79z" />
    <glyph glyph-name="germandbls" unicode="&#xdf;" 
d="M0 1181l79 79l78 -79v-393l-145 -85l-12 7v471zM464 1365l-157 -157h-123l-78 79l78 78h280zM307 0h-280l157 157h123l79 -78zM492 184l-78 -78l-79 78v393l145 85l12 -7v-471zM48 683l136 78h123l137 -78l-137 -79h-123zM519 1181l78 79l79 -79v-393l-145 -85l-12 7v471
zM983 1365l-157 -157h-123l-78 79l78 78h280zM826 0h-280l157 157h123l79 -78zM1010 184l-78 -78l-79 78v393l145 85l12 -7v-471zM567 683l136 78h123l137 -78l-137 -79h-123z" />
    <glyph glyph-name="registered" unicode="&#xae;" 
d="M354 687l61 36h128l68 -46l-30 -25h-166zM552 960l35 -36l-35 -35h-141l-71 71h212zM327 694v252l71 -71v-140zM327 681l71 -41v-161l-71 -71v273zM636 875v-169l-13 -12l-58 41v140l36 36zM503 635h81l99 -227l-117 76zM854 1161l55 -55l-55 -55h-276l-64 110h340z
M156 1051l-55 55l55 55h339l-63 -110h-276zM854 205h-340l64 110h276l55 -55zM156 205l-55 55l55 55h276l63 -110h-339zM27 692v340l55 55l55 -55v-276zM27 673l110 -63v-276l-55 -55l-55 55v339zM983 673v-339l-55 -55l-55 55v276zM983 1032v-340l-110 64v276l55 55z" />
    <glyph glyph-name="copyright" unicode="&#xa9;" 
d="M658 960l-71 -71h-150l-41 31l37 40h225zM658 415h-221l-36 35l36 36h150zM352 694v175l31 38l40 -32v-140zM352 681l71 -41v-140l-35 -36l-36 36v181zM854 1161l55 -55l-55 -55h-276l-64 110h340zM156 1051l-55 55l55 55h339l-63 -110h-276zM854 205h-340l64 110h276
l55 -55zM156 205l-55 55l55 55h276l63 -110h-339zM27 692v340l55 55l55 -55v-276zM27 673l110 -63v-276l-55 -55l-55 55v339zM983 673v-339l-55 -55l-55 55v276zM983 1032v-340l-110 64v276l55 55z" />
    <glyph glyph-name="trademark" unicode="&#x2122;" 
d="M253 580l-53 88v205l53 88l53 -88v-205zM253 969l-53 87v176l53 88l53 -88v-176zM262 1365h232l-102 -106h-71zM12 1365h231l-58 -106h-71zM502 986v259l53 50l53 -50v-201zM502 967l106 -59v-229l-106 -102v390zM757 580l-53 88v197l53 88l53 -88v-197zM757 969l-53 87
v176l53 88l53 -88v-176zM766 1365h123l50 -53l-50 -53h-64zM625 1365h123l-59 -106h-64l-51 53zM1010 1245v-259l-106 58v201l53 50zM1010 967v-390l-106 102v229z" />
    <glyph glyph-name="acute" unicode="&#xb4;" 
d="M796 1720l-246 -245h-191l246 245h191z" />
    <glyph glyph-name="dieresis" unicode="&#xa8;" 
d="M232 1666h157v-191h-157v191zM621 1666h157v-191h-157v191z" />
    <glyph glyph-name="notequal" unicode="&#x2260;" 
d="M161 696l-79 79l79 78h689l79 -78l-79 -79h-689zM850 669l79 -78l-79 -79h-689l-79 79l79 78h689zM197 484h204l-139 -160h-111v111zM813 881h-204l139 160h111v-111z" />
    <glyph glyph-name="AE" unicode="&#xc6;" 
d="M31 696v642l157 -157v-393zM31 -14v683l157 -92v-434zM526 1365l-92 -157h-219l-157 157h468zM79 683l136 78h219l85 -78l-85 -79h-219zM461 788v393l78 126l79 -126v-393l-79 -73zM461 27v550l78 73l79 -73v-393zM994 1365l-157 -157h-192l-92 157h441zM994 0h-506
l157 157h192zM560 683l85 78h192l136 -78l-136 -79h-192z" />
    <glyph glyph-name="Oslash" unicode="&#xd8;" 
d="M894 1543l118 54l14 -113l-139 -239l-101 97zM694 1168v-264l-377 -686v281zM-15 -96l130 227l100 -103l-108 -203l-106 -42zM123 696v485l79 79l78 -79v-393zM123 184v485l157 -92v-393l-78 -78zM703 1365l79 -78l-79 -79h-396l-78 79l78 78h396zM703 0h-396l-78 79
l78 78h396l79 -78zM888 669v-485l-78 -78l-79 78v393zM888 1181v-485l-157 92v393l79 79z" />
    <glyph glyph-name="infinity" unicode="&#x221e;" 
d="M508 605q-152 -219 -339 -219q-159 0 -244 109q-65 85 -65 205q0 139 86 222q88 85 224 85q186 0 332 -217q149 219 341 219q159 0 245 -115q61 -83 61 -198q0 -150 -97 -236q-86 -76 -207 -76q-190 0 -337 221zM574 698q34 -55 64 -91q88 -106 191 -106q86 0 138 62
q46 54 46 133q0 102 -70 156q-52 40 -116 40q-108 0 -196 -112q-20 -26 -40 -57q-18 -25 -17 -25zM436 696q-34 54 -65 91q-88 105 -191 105q-85 0 -138 -62q-46 -53 -46 -132q0 -102 70 -156q52 -40 116 -40q107 0 196 113q20 24 41 56z" />
    <glyph glyph-name="plusminus" unicode="&#xb1;" 
d="M939 79l-79 -79h-689l-79 79l79 78h689zM516 1193l78 -79v-326l-78 -78l-79 78v326zM516 655l78 -78v-319l-78 -78l-79 78v319zM74 683l79 78h257l78 -78l-78 -79h-257zM543 683l78 78h258l78 -78l-78 -79h-258z" />
    <glyph glyph-name="lessequal" unicode="&#x2264;" 
d="M948 1235v-131l-740 -326l740 -326v-132l-887 396v120zM948 259v-127h-887v127h887z" />
    <glyph glyph-name="greaterequal" unicode="&#x2265;" 
d="M61 320v132l740 326l-740 326v131l887 -400v-119zM61 132v127h887v-127h-887z" />
    <glyph glyph-name="yen" unicode="&#xa5;" 
d="M584 365v-222l-78 -157l-79 157v222h157zM123 1379l157 -157v-434l-145 -85l-12 7v669zM888 1379v-669l-12 -7l-145 85v434zM171 683l136 78h396l137 -78l-137 -79h-396zM171 485l136 78h396l137 -78l-137 -79h-396z" />
    <glyph glyph-name="mu1" unicode="&#xb5;" 
d="M832 806v-622l-79 -78l-78 78v465zM361 0l-78 79l78 78h287l79 -78l-79 -79h-287zM177 -341v471l157 -157v-222zM177 184v622l157 -157v-465l-78 -78z" />
    <glyph glyph-name="partialdiff" unicode="&#x2202;" 
d="M172 1251l19 122q168 -23 279 -71q252 -109 380 -364q101 -200 101 -441q0 -197 -82 -322q-65 -100 -169 -152q-91 -46 -193 -46q-152 0 -274 98q-66 53 -108 124q-66 110 -66 240q0 143 79 264q65 98 169 147q86 41 180 41q131 0 219 -65q36 -27 87 -92q-7 18 -12 32
q-51 125 -81 171q-68 101 -153 163q-115 84 -217 117q-66 22 -158 34zM511 786q-115 0 -203 -82q-46 -43 -76 -110q-35 -78 -35 -162q0 -157 104 -261q88 -88 205 -88q115 0 201 86q105 105 105 275q0 176 -108 270q-81 72 -193 72z" />
    <glyph glyph-name="summation" unicode="&#x2211;" 
d="M1042 1536v-463h-125l-12 334h-871l517 -854l-517 -938h891l6 332h130v-459h-1180v143l510 922l-510 842v141h1161z" />
    <glyph glyph-name="product" unicode="&#x220f;" 
d="M-132 1536h1275v-127h-162v-1794h162v-127h-468v127h169v1794h-678v-1794h168v-127h-466v127h161v1794h-161v127z" />
    <glyph glyph-name="pi" unicode="&#x3c0;" 
d="M127 0v858h-152v123h1060v-123h-150v-858h-137v858h-484v-858h-137z" />
    <glyph glyph-name="integral" unicode="&#x222b;" 
d="M199 -490l31 122q51 -21 90 -21q95 0 111 90q6 35 6 154v1290q0 191 17 248q20 66 79 105q56 38 145 38q57 0 133 -22l-31 -122q-51 21 -90 21q-95 0 -111 -90q-5 -26 -6 -213v-1230q0 -162 -11 -220q-17 -92 -97 -135q-62 -34 -153 -34q-62 0 -113 19z" />
    <glyph glyph-name="ordfeminine" unicode="&#xaa;" 
d="M123 1181l79 79l78 -79v-406l-78 -79l-79 79v406zM860 1365l-157 -157h-396l-78 79l78 78h553zM860 591h-553l-78 79l78 78h396zM888 1338v-720l-157 157v406z" />
    <glyph glyph-name="ordmasculine" unicode="&#xba;" 
d="M123 1181l79 79l78 -79v-406l-78 -79l-79 79v406zM703 1365l79 -78l-79 -79h-396l-78 79l78 78h396zM703 591h-396l-78 79l78 78h396l79 -78zM888 1181v-406l-79 -79l-78 79v406l78 79z" />
    <glyph glyph-name="Ohm" unicode="&#x2126;" 
d="M-119 0v123h376q-375 219 -375 620q0 311 224 506q171 149 400 149q228 0 399 -149q224 -195 224 -507q0 -401 -374 -619h375v-123h-532v111q146 84 226 173q165 186 165 444q0 252 -169 416q-135 131 -311 131q-173 0 -306 -116q-181 -158 -181 -432q0 -396 392 -616
v-111h-533z" />
    <glyph glyph-name="ae" unicode="&#xe6;" 
d="M31 696v642l157 -157v-393zM31 -14v683l157 -92v-434zM526 1365l-92 -157h-219l-157 157h468zM79 683l136 78h219l85 -78l-85 -79h-219zM461 788v393l78 126l79 -126v-393l-79 -73zM461 27v550l78 73l79 -73v-393zM994 1365l-157 -157h-192l-92 157h441zM994 0h-506
l157 157h192zM560 683l85 78h192l136 -78l-136 -79h-192z" />
    <glyph glyph-name="oslash" unicode="&#xf8;" 
d="M894 1543l118 54l14 -113l-139 -239l-101 97zM694 1168v-264l-377 -686v281zM-15 -96l130 227l100 -103l-108 -203l-106 -42zM123 696v485l79 79l78 -79v-393zM123 184v485l157 -92v-393l-78 -78zM703 1365l79 -78l-79 -79h-396l-78 79l78 78h396zM703 0h-396l-78 79
l78 78h396l79 -78zM888 669v-485l-78 -78l-79 78v393zM888 1181v-485l-157 92v393l79 79z" />
    <glyph glyph-name="questiondown" unicode="&#xbf;" 
d="M622 604h-274l-131 79l151 78h97zM191 0l157 157h396l157 -157h-710zM164 27v641l157 -91v-393zM465 806v170l157 -157v-170zM464 1019v346l157 -78v-190z" />
    <glyph glyph-name="exclamdown" unicode="&#xa1;" 
d="M399 -54v954l157 -135v-665zM399 1051v335l157 -45v-234z" />
    <glyph glyph-name="logicalnot" unicode="&#xac;" 
d="M811 0v419h-750v127h887v-546h-137z" />
    <glyph glyph-name="radical" unicode="&#x221a;" 
d="M1188 1697v-127h-406l-452 -1570h-166l-173 619h-168v127h279l80 -273q8 -28 55 -249l6 -33h10q8 39 42 179l52 215l93 319l226 793h522z" />
    <glyph glyph-name="florin" unicode="&#x192;" 
d="M550 767h116l79 -78l-79 -79h-156l-63 75zM186 767h144l69 -83l-93 -74h-120l-79 79zM620 1208l-73 79l88 78h151l79 -78l-79 -79h-166zM520 780l-94 -77l-66 81l71 403l94 79l64 -74zM421 655l64 -79l-162 -912l-91 -80l-65 87l156 905z" />
    <glyph glyph-name="approxequal" unicode="&#x2248;" 
d="M96 712l-82 53q35 72 76 126q79 104 202 104q76 0 231 -73q103 -50 137 -59q33 -9 63 -9q73 0 122 51q32 32 68 94l84 -49q-53 -106 -108 -155q-80 -70 -181 -70q-51 0 -137 31q-16 6 -149 68q-86 40 -141 40q-67 0 -119 -55q-32 -34 -66 -97zM96 378l-82 53
q35 73 76 126q79 105 202 105q77 0 231 -73q102 -49 137 -59q34 -9 63 -9q73 0 122 51q31 31 68 93l84 -49q-52 -105 -108 -154q-80 -70 -182 -70q-50 0 -136 31q-16 6 -149 68q-86 40 -141 40q-67 0 -119 -55q-32 -35 -66 -98z" />
    <glyph glyph-name="increment" unicode="&#x2206;" 
d="M-119 0l549 1365h146l553 -1365h-1248zM77 128h854l-427 1071z" />
    <glyph glyph-name="guillemotleft" unicode="&#xab;" 
d="M539 88h-181l-179 277l115 144zM281 525l-111 137l193 336h176zM840 88h-181l-180 277l115 144zM582 525l-112 137l193 336h177z" />
    <glyph glyph-name="guillemotright" unicode="&#xbb;" 
d="M470 998h182l179 -277l-115 -144zM729 561l111 -137l-193 -336h-177zM170 998h181l180 -277l-116 -144zM428 561l111 -137l-192 -336h-177z" />
    <glyph glyph-name="ellipsis" unicode="&#x2026;" 
d="M208 327v-327l-157 35v236zM583 327v-327l-157 35v236zM959 327v-327l-157 35v236z" />
    <glyph glyph-name="nbspace" 
 />
    <glyph glyph-name="Agrave" unicode="&#xc0;" 
d="M123 696v642l157 -157v-393zM123 -14v683l157 -92v-434zM860 1365l-157 -157h-396l-157 157h710zM888 669v-683l-157 157v434zM888 1338v-642l-157 92v393zM171 683l136 78h396l137 -78l-137 -79h-396zM214 1720h191l246 -245h-191z" />
    <glyph glyph-name="Atilde" unicode="&#xc3;" 
d="M123 696v642l157 -157v-393zM123 -14v683l157 -92v-434zM860 1365l-157 -157h-396l-157 157h710zM888 669v-683l-157 157v434zM888 1338v-642l-157 92v393zM171 683l136 78h396l137 -78l-137 -79h-396zM159 1511l78 93l105 -46l-78 -92zM350 1735l396 -174l-85 -101
l-397 175zM774 1592l-105 46l78 93l105 -46z" />
    <glyph glyph-name="Otilde" unicode="&#xd5;" 
d="M123 696v485l79 79l78 -79v-393zM123 184v485l157 -92v-393l-78 -78zM703 1365l79 -78l-79 -79h-396l-78 79l78 78h396zM703 0h-396l-78 79l78 78h396l79 -78zM888 669v-485l-79 -78l-78 78v393zM888 1181v-485l-157 92v393l78 79zM159 1511l78 93l105 -46l-78 -92z
M350 1735l396 -174l-85 -101l-397 175zM774 1592l-105 46l78 93l105 -46z" />
    <glyph glyph-name="OE" unicode="&#x152;" 
d="M1001 1365l-157 -157h-178l-106 157h441zM1001 0h-441l106 157h178zM468 696v499l78 116l79 -116v-408zM468 669l157 -91v-407l-79 -116l-78 116v498zM533 1365l-106 -157h-205l-78 79l78 78h311zM533 0h-311l-78 79l78 78h205zM38 696v485l79 79l78 -79v-394zM38 669
l157 -91v-394l-78 -78l-79 78v485zM516 683l136 78h192l136 -78l-136 -79h-192z" />
    <glyph glyph-name="oe" unicode="&#x153;" 
d="M1001 1365l-157 -157h-178l-106 157h441zM1001 0h-441l106 157h178zM468 696v499l78 116l79 -116v-408zM468 669l157 -91v-407l-79 -116l-78 116v498zM533 1365l-106 -157h-205l-78 79l78 78h311zM533 0h-311l-78 79l78 78h205zM38 696v485l79 79l78 -79v-394zM38 669
l157 -91v-394l-78 -78l-79 78v485zM516 683l136 78h192l136 -78l-136 -79h-192z" />
    <glyph glyph-name="endash" unicode="&#x2013;" 
d="M157 686l145 75h400l151 -75l-151 -82h-400z" />
    <glyph glyph-name="emdash" unicode="&#x2014;" 
d="M-177 686l145 75h1070l150 -75l-150 -82h-1070z" />
    <glyph glyph-name="quotedblleft" unicode="&#x201c;" 
d="M686 1414l113 -117l-138 -345h-162zM399 1414l113 -117l-138 -345h-162z" />
    <glyph glyph-name="quotedblright" unicode="&#x201d;" 
d="M325 903l-113 117l138 345h162zM612 903l-113 117l138 345h162z" />
    <glyph glyph-name="quoteleft" unicode="&#x2018;" 
d="M542 1414l113 -117l-138 -345h-162z" />
    <glyph glyph-name="quoteright" unicode="&#x2019;" 
d="M464 852l-126 130l154 383h180z" />
    <glyph glyph-name="divide" unicode="&#xf7;" 
d="M505 230l-106 106l106 106l106 -106zM505 1129l106 -106l-106 -105l-106 105zM929 683l-79 -79h-689l-79 79l79 78h689z" />
    <glyph glyph-name="lozenge" unicode="&#x25ca;" 
d="M505 1419l531 -736l-531 -736l-532 736zM505 1238l-404 -555l404 -554l403 554z" />
    <glyph glyph-name="ydieresis" unicode="&#xff;" 
d="M584 563v-420l-78 -157l-79 157v420h157zM123 1379l157 -157v-434l-145 -85l-12 7v669zM888 1379v-669l-12 -7l-145 85v434zM171 683l136 78h396l137 -78l-137 -79h-396zM232 1666h157v-191h-157v191zM621 1666h157v-191h-157v191z" />
    <glyph glyph-name="Ydieresis" unicode="&#x178;" 
d="M584 563v-420l-78 -157l-79 157v420h157zM123 1379l157 -157v-434l-145 -85l-12 7v669zM888 1379v-669l-12 -7l-145 85v434zM171 683l136 78h396l137 -78l-137 -79h-396zM232 1666h157v-191h-157v191zM621 1666h157v-191h-157v191z" />
    <glyph glyph-name="fraction" unicode="&#x2044;" 
d="M592 710l-46 149l285 448l106 63v-132zM417 655h141l-380 -597l-106 -63v132z" />
    <glyph glyph-name="fraction" unicode="&#x2215;" 
d="M592 710l-46 149l285 448l106 63v-132zM417 655h141l-380 -597l-106 -63v132z" />
    <glyph glyph-name="Euro" 
d="M184 713l78 79l79 -79v-61l-79 -79l-78 79v61zM368 625h253l137 -78l-137 -79h-253l-78 79zM184 440l78 79l79 -79v-256l-79 -78l-78 78v256zM921 0h-553l-78 79l78 78h396zM51 547l79 78h27l78 -78l-78 -79h-27zM368 741l-78 78l78 79h253l137 -79l-137 -78h-253z
M184 925v256l78 79l79 -79v-256l-79 -78zM921 1365l-157 -157h-396l-78 79l78 78h553zM51 819l79 79h27l78 -79l-78 -78h-27z" />
    <glyph glyph-name="guilsinglleft" unicode="&#x2039;" 
d="M689 88h-181l-179 277l115 144zM431 525l-111 137l193 336h176z" />
    <glyph glyph-name="guilsinglright" unicode="&#x203a;" 
d="M320 998h181l180 -277l-116 -144zM578 561l111 -137l-192 -336h-177z" />
    <glyph glyph-name="fi" unicode="&#xf001;" 
d="M-24 696v642l157 -157v-393zM-24 -14v683l157 -92v-434zM713 1365l-157 -157h-396l-157 157h710zM24 683l136 78h396l137 -78l-137 -79h-396zM1034 669v-683l-157 157v434zM1034 1379v-683l-157 92v434z" />
    <glyph glyph-name="fi" unicode="&#xfb01;" 
d="M-24 696v642l157 -157v-393zM-24 -14v683l157 -92v-434zM713 1365l-157 -157h-396l-157 157h710zM24 683l136 78h396l137 -78l-137 -79h-396zM1034 669v-683l-157 157v434zM1034 1379v-683l-157 92v434z" />
    <glyph glyph-name="fl" unicode="&#xf002;" 
d="M-300 696v642l157 -157v-393zM-300 -14v683l157 -92v-434zM437 1365l-157 -157h-396l-157 157h710zM-252 683l136 78h396l137 -78l-137 -79h-396zM1366 27l-157 157v120l157 92v-369zM628 0l157 157h396l157 -157h-710zM601 669l157 -92v-393l-157 -157v642zM601 1379
l157 -157v-434l-157 -92v683z" />
    <glyph glyph-name="fl" unicode="&#xfb02;" 
d="M-300 696v642l157 -157v-393zM-300 -14v683l157 -92v-434zM437 1365l-157 -157h-396l-157 157h710zM-252 683l136 78h396l137 -78l-137 -79h-396zM1366 27l-157 157v120l157 92v-369zM628 0l157 157h396l157 -157h-710zM601 669l157 -92v-393l-157 -157v642zM601 1379
l157 -157v-434l-157 -92v683z" />
    <glyph glyph-name="daggerdbl" unicode="&#x2021;" 
d="M427 857l79 79l78 -79v-349l-78 -79l-79 79v349zM584 296v-153l-78 -157l-79 157v153l79 79zM427 1069v153l79 157l78 -157v-153l-78 -79zM611 324l-78 79l78 78h219l99 -78l-99 -79h-219zM399 324h-218l-99 79l99 78h218l79 -78zM399 1042l79 -79l-79 -78h-218l-99 78
l99 79h218zM611 1042h219l99 -79l-99 -78h-219l-78 78z" />
    <glyph glyph-name="periodcentered" unicode="&#x2219;" 
d="M584 710v-328l-157 36v235z" />
    <glyph glyph-name="quotesinglbase" unicode="&#x201a;" 
d="M464 -223l-126 129l154 384h180z" />
    <glyph glyph-name="quotedblbase" unicode="&#x201e;" 
d="M325 -257l-113 117l138 345h162zM612 -257l-113 117l138 345h162z" />
    <glyph glyph-name="perthousand" unicode="&#x2030;" 
d="M332 1365l-117 -106h-59l-117 106h293zM332 862h-293l117 106h59zM17 883v455l106 -117v-221zM354 1340v-457l-106 117v221zM558 504l-117 -106h-59l-117 106h293zM558 0h-293l117 106h59zM244 27v455l106 -117v-221zM580 485v-458l-106 117v221zM979 504l-117 -106h-58
l-117 106h292zM979 0h-292l117 106h58zM665 27v455l106 -117v-221zM1007 485v-458l-106 117v221zM498 799l-10 156l379 372l117 37l-30 -128zM343 813l137 -32l-472 -463v175z" />
    <glyph glyph-name="Acircumflex" unicode="&#xc2;" 
d="M123 696v642l157 -157v-393zM123 -14v683l157 -92v-434zM860 1365l-157 -157h-396l-157 157h710zM888 669v-683l-157 157v434zM888 1338v-642l-157 92v393zM171 683l136 78h396l137 -78l-137 -79h-396zM178 1475l305 263v-177l-87 -86h-218zM832 1475h-218l-87 86v177z
" />
    <glyph glyph-name="Ecircumflex" unicode="&#xca;" 
d="M164 696v642l157 -157v-393zM164 27v642l157 -92v-393zM901 1365l-157 -157h-396l-157 157h710zM901 0h-710l157 157h396zM212 683l136 78h396l137 -78l-137 -79h-396zM206 1475l305 263v-177l-87 -86h-218zM860 1475h-218l-87 86v177z" />
    <glyph glyph-name="Aacute" unicode="&#xc1;" 
d="M123 696v642l157 -157v-393zM123 -14v683l157 -92v-434zM860 1365l-157 -157h-396l-157 157h710zM888 669v-683l-157 157v434zM888 1338v-642l-157 92v393zM171 683l136 78h396l137 -78l-137 -79h-396zM796 1720l-246 -245h-191l246 245h191z" />
    <glyph glyph-name="Edieresis" unicode="&#xcb;" 
d="M164 696v642l157 -157v-393zM164 27v642l157 -92v-393zM901 1365l-157 -157h-396l-157 157h710zM901 0h-710l157 157h396zM212 683l136 78h396l137 -78l-137 -79h-396zM260 1666h157v-191h-157v191zM649 1666h157v-191h-157v191z" />
    <glyph glyph-name="Egrave" unicode="&#xc8;" 
d="M164 696v642l157 -157v-393zM164 27v642l157 -92v-393zM901 1365l-157 -157h-396l-157 157h710zM901 0h-710l157 157h396zM212 683l136 78h396l137 -78l-137 -79h-396zM215 1720h191l246 -245h-191z" />
    <glyph glyph-name="Iacute" unicode="&#xcd;" 
d="M584 669v-683l-157 157v434zM584 1379v-683l-157 92v434zM796 1720l-246 -245h-191l246 245h191z" />
    <glyph glyph-name="Icircumflex" unicode="&#xce;" 
d="M584 669v-683l-157 157v434zM584 1379v-683l-157 92v434zM178 1475l305 263v-177l-87 -86h-218zM832 1475h-218l-87 86v177z" />
    <glyph glyph-name="Idieresis" unicode="&#xcf;" 
d="M584 669v-683l-157 157v434zM584 1379v-683l-157 92v434zM315 1665h157v-190h-157v190zM539 1665h157v-190h-157v190z" />
    <glyph glyph-name="Igrave" unicode="&#xcc;" 
d="M583 669v-683l-157 157v434zM583 1379v-683l-157 92v434zM214 1720h191l246 -245h-191z" />
    <glyph glyph-name="Oacute" unicode="&#xd3;" 
d="M123 696v485l79 79l78 -79v-393zM123 184v485l157 -92v-393l-78 -78zM703 1365l79 -78l-79 -79h-396l-78 79l78 78h396zM703 0h-396l-78 79l78 78h396l79 -78zM888 669v-485l-79 -78l-78 78v393zM888 1181v-485l-157 92v393l78 79zM824 1720l-246 -245h-191l246 245h191z
" />
    <glyph glyph-name="Ocircumflex" unicode="&#xd4;" 
d="M123 696v485l79 79l78 -79v-393zM123 184v485l157 -92v-393l-78 -78zM703 1365l79 -78l-79 -79h-396l-78 79l78 78h396zM703 0h-396l-78 79l78 78h396l79 -78zM888 669v-485l-79 -78l-78 78v393zM888 1181v-485l-157 92v393l78 79zM178 1475l305 263v-177l-87 -86h-218z
M832 1475h-218l-87 86v177z" />
    <glyph glyph-name="glyph210" 
 />
    <glyph glyph-name="Ograve" unicode="&#xd2;" 
d="M123 696v485l79 79l78 -79v-393zM123 184v485l157 -92v-393l-78 -78zM703 1365l79 -78l-79 -79h-396l-78 79l78 78h396zM703 0h-396l-78 79l78 78h396l79 -78zM888 669v-485l-79 -78l-78 78v393zM888 1181v-485l-157 92v393l78 79zM187 1720h191l246 -245h-191z" />
    <glyph glyph-name="Uacute" unicode="&#xda;" 
d="M888 669v-485l-79 -78l-78 78v393zM888 1379v-683l-157 92v434zM307 0l-78 79l78 78h396l79 -78l-79 -79h-396zM123 696v683l157 -157v-434zM123 184v485l157 -92v-393l-78 -78zM796 1720l-246 -245h-191l246 245h191z" />
    <glyph glyph-name="Ucircumflex" unicode="&#xdb;" 
d="M888 669v-485l-79 -78l-78 78v393zM888 1379v-683l-157 92v434zM307 0l-78 79l78 78h396l79 -78l-79 -79h-396zM123 696v683l157 -157v-434zM123 184v485l157 -92v-393l-78 -78zM178 1475l305 263v-177l-87 -86h-218zM832 1475h-218l-87 86v177z" />
    <glyph glyph-name="Ugrave" unicode="&#xd9;" 
d="M888 669v-485l-79 -78l-78 78v393zM888 1379v-683l-157 92v434zM307 0l-78 79l78 78h396l79 -78l-79 -79h-396zM123 696v683l157 -157v-434zM123 184v485l157 -92v-393l-78 -78zM214 1720h191l246 -245h-191z" />
    <glyph glyph-name="dotlessi" unicode="&#x131;" 
d="M584 669v-683l-157 157v434zM584 1379v-683l-157 92v434z" />
    <glyph glyph-name="circumflex" unicode="&#x2c6;" 
d="M178 1475l305 263v-177l-87 -86h-218zM832 1475h-218l-87 86v177z" />
    <glyph glyph-name="tilde" unicode="&#x2dc;" 
d="M159 1511l78 93l105 -46l-78 -92zM350 1735l396 -174l-85 -101l-397 175zM774 1592l-105 46l78 93l105 -46z" />
    <glyph glyph-name="macron" unicode="&#x2c9;" 
d="M325 1641h360l75 -79l-75 -78h-360l-75 78z" />
    <glyph glyph-name="breve" unicode="&#x2d8;" 
d="M401 1475l-70 78l70 79h221l70 -79l-70 -78h-221zM233 1750h157v-108l-78 -70l-79 70v108zM790 1750v-108l-78 -70l-79 70v108h157z" />
    <glyph glyph-name="dotaccent" unicode="&#x2d9;" 
d="M427 1666h157v-191h-157v191z" />
    <glyph glyph-name="ring" unicode="&#x2da;" 
d="M355 1830h301l-110 -106h-81zM683 1802v-300l-106 109v82zM656 1475h-301l110 106h81zM328 1802l106 -109v-82l-106 -109v300z" />
    <glyph glyph-name="cedilla" unicode="&#xb8;" 
d="M475 -41h200l-238 -415l-115 144z" />
    <glyph glyph-name="hungarumlaut" unicode="&#x2dd;" 
d="M660 1720l-246 -245h-191l246 245h191zM1001 1720l-246 -245h-191l246 245h191z" />
    <glyph glyph-name="ogonek" unicode="&#x2db;" 
d="M760 -184h164l83 -79l-83 -78h-164l-83 78zM565 -27h157v-119l-78 -83l-79 83v119z" />
    <glyph glyph-name="caron" unicode="&#x2c7;" 
d="M832 1720l-305 -263v177l87 86h218zM178 1720h218l87 -86v-177z" />
    <glyph glyph-name="00a0" unicode="&#xa0;" 
 />
    <glyph glyph-name="brokenbar" unicode="&#xa6;" 
d="M437 1365h137v-678h-137v678zM437 314h137v-655h-137v655z" />
    <glyph glyph-name="sfthyphen" unicode="&#xad;" 
d="M192 686l145 75h332l150 -75l-150 -82h-332z" />
    <glyph glyph-name="overscore" unicode="&#xaf;" 
d="M-7 1630h1024v-126h-1024v126z" />
    <glyph glyph-name="twosuperior" unicode="&#xb2;" 
d="M324 956l83 53h197l83 -53l-83 -53h-197zM710 1365l-106 -106h-197l-107 106h410zM710 546h-410l107 106h197zM379 875v-195l-106 -107v351l15 9zM738 1338v-351l-15 -8l-91 57v195z" />
    <glyph glyph-name="threesuperior" unicode="&#xb3;" 
d="M324 956l82 53h198l82 -53l-82 -53h-198zM710 1365l-106 -106h-198l-106 106h410zM710 546h-410l106 106h198zM737 942v-369l-106 107v195zM737 1338v-369l-106 67v195z" />
    <glyph glyph-name="middot" unicode="&#xb7;" 
d="M584 710v-328l-157 36v235z" />
    <glyph glyph-name="onesuperior" unicode="&#xb9;" 
d="M738 942v-403l-106 107v229zM711 1365l-107 -106h-61l-106 106h274zM738 1338v-369l-106 67v195z" />
    <glyph glyph-name="onequarter" unicode="&#xbc;" 
d="M225 1365l-85 -106h-49l-85 106h219zM257 942v-396l-106 106v223zM257 1338v-369l-106 67v195zM510 710l-37 149l228 448l85 63v-132zM370 655h113l-304 -597l-85 -63v132zM674 409l66 53h158l66 -53l-66 -53h-158zM623 792l106 -106v-196l-91 -57l-15 8v351zM1005 396
v-369l-106 107v195zM1005 792v-369l-106 67v196z" />
    <glyph glyph-name="onehalf" unicode="&#xbd;" 
d="M225 1365l-85 -106h-49l-85 106h219zM257 942v-396l-106 106v223zM257 1338v-369l-106 67v195zM510 710l-37 149l228 448l85 63v-132zM370 655h113l-304 -597l-85 -63v132zM674 409l66 53h158l66 -53l-66 -53h-158zM983 819l-85 -106h-158l-85 106h328zM983 0h-328
l85 106h158zM729 329v-195l-106 -107v351l15 9zM1005 792v-351l-15 -8l-91 57v196z" />
    <glyph glyph-name="threequarters" unicode="&#xbe;" 
d="M34 956l66 53h72l66 -53l-66 -53h-72zM257 1365l-85 -106h-72l-85 106h242zM257 546h-242l85 106h72zM289 942v-369l-106 107v195zM289 1338v-369l-106 67v195zM542 710l-37 149l228 448l85 63v-132zM402 655h113l-304 -597l-85 -63v132zM665 409l66 53h158l66 -53
l-66 -53h-158zM614 792l106 -106v-196l-91 -57l-15 8v351zM996 396v-369l-106 107v195zM996 792v-369l-106 67v196z" />
    <glyph glyph-name="Eth" unicode="&#xd0;" 
d="M703 1365l79 -78l-79 -79h-396l-157 157h553zM703 0h-553l157 157h396l79 -78zM888 669v-485l-79 -78l-78 78v393zM888 1181v-485l-157 92v393l78 79zM-10 683l79 78h27l78 -78l-78 -79h-27zM452 761l135 -78l-135 -79h-145l-78 79l78 78h145zM123 788v550l157 -157v-393
l-79 -78zM123 577l78 78l79 -78v-393l-157 -157v550z" />
    <glyph glyph-name="multiply" unicode="&#xd7;" 
d="M873 1086v-111l-243 -279h-111v111l243 279h111zM492 669v-111l-243 -279h-111v111l243 279h111zM138 1086h111l243 -279v-111h-111l-243 279v111zM519 669h111l243 -279v-111h-111l-243 279v111z" />
    <glyph glyph-name="Yacute" unicode="&#xdd;" 
d="M584 563v-420l-78 -157l-79 157v420h157zM123 1379l157 -157v-434l-145 -85l-12 7v669zM888 1379v-669l-12 -7l-145 85v434zM171 683l136 78h396l137 -78l-137 -79h-396zM796 1720l-246 -245h-191l246 245h191z" />
    <glyph glyph-name="Thorn" unicode="&#xde;" 
d="M888 440l-12 -6l-145 85v392l145 86l12 -7v-550zM123 1004l157 -93v-392l-157 -92v577zM123 1379l157 -157v-99l-157 -92v348zM123 -14v413l157 -92v-164zM171 1017l136 79h396l137 -79l-137 -78h-396zM171 414l136 78h396l137 -78l-137 -79h-396z" />
    <glyph glyph-name="eth" unicode="&#xf0;" 
d="M703 1365l79 -78l-79 -79h-396l-157 157h553zM703 0h-553l157 157h396l79 -78zM888 669v-485l-79 -78l-78 78v393zM888 1181v-485l-157 92v393l78 79zM-10 683l79 78h27l78 -78l-78 -79h-27zM452 761l135 -78l-135 -79h-145l-78 79l78 78h145zM123 788v550l157 -157v-393
l-79 -78zM123 577l78 78l79 -78v-393l-157 -157v550z" />
    <glyph glyph-name="yacute" unicode="&#xfd;" 
d="M584 563v-420l-78 -157l-79 157v420h157zM123 1379l157 -157v-434l-145 -85l-12 7v669zM888 1379v-669l-12 -7l-145 85v434zM171 683l136 78h396l137 -78l-137 -79h-396zM796 1720l-246 -245h-191l246 245h191z" />
    <glyph glyph-name="thorn" unicode="&#xfe;" 
d="M888 440l-12 -6l-145 85v392l145 86l12 -7v-550zM123 1004l157 -93v-392l-157 -92v577zM123 1379l157 -157v-99l-157 -92v348zM123 -14v413l157 -92v-164zM171 1017l136 79h396l137 -79l-137 -78h-396zM171 414l136 78h396l137 -78l-137 -79h-396z" />
    <glyph glyph-name="Cacute" unicode="&#x106;" 
d="M865 1720l-246 -245h-191l246 245h191zM171 696v485l79 79l78 -79v-393zM171 184v485l157 -92v-393l-78 -78zM908 1365l-157 -157h-396l-78 79l78 78h553zM908 0h-553l-78 79l78 78h396z" />
    <glyph glyph-name="cacute" unicode="&#x107;" 
d="M865 1720l-246 -245h-191l246 245h191zM171 696v485l79 79l78 -79v-393zM171 184v485l157 -92v-393l-78 -78zM908 1365l-157 -157h-396l-78 79l78 78h553zM908 0h-553l-78 79l78 78h396z" />
    <glyph glyph-name="Ccaron" unicode="&#x10c;" 
d="M874 1720l-305 -263v177l87 86h218zM220 1720h218l87 -86v-177zM171 696v485l79 79l78 -79v-393zM171 184v485l157 -92v-393l-78 -78zM908 1365l-157 -157h-396l-78 79l78 78h553zM908 0h-553l-78 79l78 78h396z" />
    <glyph glyph-name="ccaron" unicode="&#x10d;" 
d="M874 1720l-305 -263v177l87 86h218zM220 1720h218l87 -86v-177zM171 696v485l79 79l78 -79v-393zM171 184v485l157 -92v-393l-78 -78zM908 1365l-157 -157h-396l-78 79l78 78h553zM908 0h-553l-78 79l78 78h396z" />
    <glyph glyph-name="dmacron" unicode="&#x111;" 
d="M703 1365l79 -78l-79 -79h-396l-157 157h553zM703 0h-553l157 157h396l79 -78zM888 669v-485l-79 -78l-78 78v393zM888 1181v-485l-157 92v393l78 79zM-10 683l79 78h27l78 -78l-78 -79h-27zM452 761l135 -78l-135 -79h-145l-78 79l78 78h145zM123 788v550l157 -157v-393
l-79 -78zM123 577l78 78l79 -78v-393l-157 -157v550z" />
    <glyph glyph-name="Gbreve" unicode="&#x11e;" 
d="M402 1475l-70 78l70 79h221l70 -79l-70 -78h-221zM234 1750h157v-108l-78 -70l-79 70v108zM791 1750v-108l-78 -70l-79 70v108h157zM123 696v485l79 79l78 -79v-393zM123 184v485l157 -92v-393l-78 -78zM703 1365l-157 -157h-239l-78 79l78 78h396zM703 0h-396l-78 79
l78 78h396l79 -78zM888 184l-79 -78l-78 78v393l145 85l12 -7v-471zM498 683l137 78h68l137 -78l-137 -79h-68z" />
    <glyph glyph-name="gbreve" unicode="&#x11f;" 
d="M402 1475l-70 78l70 79h221l70 -79l-70 -78h-221zM234 1750h157v-108l-78 -70l-79 70v108zM791 1750v-108l-78 -70l-79 70v108h157zM123 696v485l79 79l78 -79v-393zM123 184v485l157 -92v-393l-78 -78zM703 1365l-157 -157h-239l-78 79l78 78h396zM703 0h-396l-78 79
l78 78h396l79 -78zM888 184l-79 -78l-78 78v393l145 85l12 -7v-471zM498 683l137 78h68l137 -78l-137 -79h-68z" />
    <glyph glyph-name="Idot" unicode="&#x130;" 
d="M427 1666h157v-191h-157v191zM584 669v-683l-157 157v434zM584 1379v-683l-157 92v434z" />
    <glyph glyph-name="Lslash" unicode="&#x141;" 
d="M915 27l-157 157v120l157 92v-369zM177 0l157 157h396l157 -157h-710zM151 669l157 -92v-393l-157 -157v642zM151 1365l157 -157v-420l-157 -92v669zM547 883l107 -29l-28 -108l-268 -154l-157 91zM110 470l-48 -27l-107 29l29 107l126 73v-182z" />
    <glyph glyph-name="lslash" unicode="&#x142;" 
d="M915 27l-157 157v120l157 92v-369zM177 0l157 157h396l157 -157h-710zM151 669l157 -92v-393l-157 -157v642zM151 1365l157 -157v-420l-157 -92v669zM547 883l107 -29l-28 -108l-268 -154l-157 91zM110 470l-48 -27l-107 29l29 107l126 73v-182z" />
    <glyph glyph-name="Scedilla" unicode="&#x15e;" 
d="M475 -41h200l-238 -415l-115 144zM123 1181l79 79l78 -79v-393l-145 -85l-12 7v471zM860 1365l-157 -157h-396l-78 79l78 78h553zM703 0h-553l157 157h396l79 -78zM888 184l-79 -78l-78 78v393l145 85l12 -7v-471zM171 683l136 78h396l137 -78l-137 -79h-396z" />
    <glyph glyph-name="scedilla" unicode="&#x15f;" 
d="M475 -41h200l-238 -415l-115 144zM123 1181l79 79l78 -79v-393l-145 -85l-12 7v471zM860 1365l-157 -157h-396l-78 79l78 78h553zM703 0h-553l157 157h396l79 -78zM888 184l-79 -78l-78 78v393l145 85l12 -7v-471zM171 683l136 78h396l137 -78l-137 -79h-396z" />
    <glyph glyph-name="Scaron" unicode="&#x160;" 
d="M123 1181l79 79l78 -79v-393l-145 -85l-12 7v471zM860 1365l-157 -157h-396l-78 79l78 78h553zM703 0h-553l157 157h396l79 -78zM888 184l-79 -78l-78 78v393l145 85l12 -7v-471zM171 683l136 78h396l137 -78l-137 -79h-396zM832 1720l-305 -263v177l87 86h218zM178 1720
h218l87 -86v-177z" />
    <glyph glyph-name="scaron" unicode="&#x161;" 
d="M123 1181l79 79l78 -79v-393l-145 -85l-12 7v471zM860 1365l-157 -157h-396l-78 79l78 78h553zM703 0h-553l157 157h396l79 -78zM888 184l-79 -78l-78 78v393l145 85l12 -7v-471zM171 683l136 78h396l137 -78l-137 -79h-396zM832 1720l-305 -263v177l87 86h218zM178 1720
h218l87 -86v-177z" />
    <glyph glyph-name="Zcaron" unicode="&#x17d;" 
d="M593 679l-76 169l214 333l157 157v-196zM391 655h188l-299 -471l-157 -157v214zM860 1365l-157 -157h-396l-157 157h710zM860 0h-710l157 157h396zM839 1720l-305 -263v177l87 86h218zM185 1720h218l87 -86v-177z" />
    <glyph glyph-name="zcaron" unicode="&#x17e;" 
d="M593 679l-76 169l214 333l157 157v-196zM391 655h188l-299 -471l-157 -157v214zM860 1365l-157 -157h-396l-157 157h710zM860 0h-710l157 157h396zM839 1720l-305 -263v177l87 86h218zM185 1720h218l87 -86v-177z" />
    <glyph glyph-name="franc" unicode="&#x20a3;" 
d="M-10 696v642l157 -157v-393zM-10 -14v683l157 -92v-434zM727 1365l-157 -157h-396l-157 157h710zM38 683l136 78h191l137 -78l-137 -79h-191zM618 -14v888l157 -157v-574zM1151 901l-157 -157h-192l-157 157h506z" />
    <glyph glyph-name="minus" unicode="&#x2212;" 
d="M929 683l-79 -79h-689l-79 79l79 78h689z" />
    <glyph glyph-name="glyph262" 
d="M315 1665h157v-190h-157v190zM539 1665h157v-190h-157v190z" />
    <glyph glyph-name="Uni20AC" unicode="&#x20ac;" 
d="M184 713l78 79l79 -79v-61l-79 -79l-78 79v61zM368 625h253l137 -78l-137 -79h-253l-78 79zM184 440l78 79l79 -79v-256l-79 -78l-78 78v256zM921 0h-553l-78 79l78 78h396zM51 547l79 78h27l78 -78l-78 -79h-27zM368 741l-78 78l78 79h253l137 -79l-137 -78h-253z
M184 925v256l78 79l79 -79v-256l-79 -78zM921 1365l-157 -157h-396l-78 79l78 78h553zM51 819l79 79h27l78 -79l-78 -78h-27z" />
    <glyph glyph-name="currency" unicode="&#xa4;" 
d="M743 1016l63 -53l-63 -53h-153l-74 106h227zM267 910q-24 11 -63 53l63 53h227l-63 -106h-164zM743 262h-227l74 106h153l63 -53zM267 262l-63 53l63 53h153l74 -106h-227zM128 650v227l53 63l53 -63v-154zM128 628l106 -74v-153l-53 -63l-53 63v227zM882 628v-227
l-53 -63l-53 63v153zM882 877v-227l-106 73v154l53 63zM30 1114h90l93 -93l-90 -90l-93 93v90zM980 254v-90h-90l-93 93l90 90zM30 164v90l93 93l90 -90l-93 -93h-90zM980 1024l-93 -93l-90 90l93 93h90v-90z" />
    <glyph glyph-name="glyph265" 
 />
  </font>
</defs>
</svg>
